<svg xmlns="http://www.w3.org/2000/svg" fill="none" viewBox="0 0 48 48">
  
  
  
<g transform="matrix(4.8,0,0,4.8,0,0)"><path stroke="#000000" stroke-linecap="round" stroke-linejoin="round" d="M5 5.693C5.95601 5.693 6.731 4.91801 6.731 3.962C6.731 3.006 5.95601 2.231 5 2.231C4.044 2.231 3.269 3.006 3.269 3.962C3.269 4.91801 4.044 5.693 5 5.693Z"></path><path stroke="#000000" stroke-linecap="round" stroke-linejoin="round" d="M2.043 8.392C2.35211 7.88487 2.78646 7.46575 3.3043 7.17494C3.82215 6.88412 4.40608 6.73137 5 6.73137C5.59392 6.73137 6.17785 6.88412 6.6957 7.17494C7.21354 7.46575 7.64789 7.88487 7.957 8.392"></path><path stroke="#000000" stroke-linecap="round" stroke-linejoin="round" d="M5 9.5C7.48528 9.5 9.5 7.48528 9.5 5C9.5 2.51472 7.48528 0.5 5 0.5C2.51472 0.5 0.5 2.51472 0.5 5C0.5 7.48528 2.51472 9.5 5 9.5Z"></path></g></svg>